<svg width="135" height="55" viewBox="0 0 135 55" fill="none" xmlns="http://www.w3.org/2000/svg">
<path d="M11.0988 47.9865C10.6264 47.9865 10.2054 47.9217 9.83589 47.7922C9.46635 47.6588 9.14824 47.4969 8.88156 47.3064C8.61489 47.1159 8.39583 46.9293 8.2244 46.7464C8.05296 46.5597 7.92724 46.4131 7.84724 46.3064L8.48155 45.4035C8.56917 45.5102 8.68727 45.6473 8.83585 45.8149C8.98443 45.9826 9.16729 46.1502 9.38444 46.3178C9.60159 46.4854 9.85494 46.6264 10.1445 46.7407C10.434 46.855 10.7616 46.9121 11.1274 46.9121C11.474 46.9121 11.7883 46.8512 12.0703 46.7293C12.3522 46.6074 12.5769 46.4264 12.7446 46.1864C12.916 45.9464 13.0017 45.6492 13.0017 45.2949C13.0017 44.994 12.9408 44.7387 12.8189 44.5292C12.6969 44.3158 12.5274 44.133 12.3103 43.9806C12.0931 43.8282 11.8398 43.6891 11.5502 43.5634C11.2607 43.4339 10.9483 43.3044 10.6131 43.1748C10.3769 43.0796 10.1369 42.9691 9.89303 42.8434C9.64921 42.7139 9.42444 42.5577 9.21872 42.3748C9.013 42.1881 8.84728 41.9672 8.72156 41.7119C8.59584 41.4567 8.53298 41.1557 8.53298 40.809C8.53298 40.4585 8.59965 40.1271 8.73299 39.8147C8.86633 39.5023 9.0549 39.2261 9.29872 38.9861C9.54254 38.7423 9.83208 38.5518 10.1673 38.4147C10.5064 38.2737 10.8816 38.2032 11.2931 38.2032C11.6588 38.2032 12.0036 38.2604 12.3274 38.3747C12.655 38.4889 12.9465 38.6356 13.2017 38.8147C13.457 38.9899 13.6608 39.1747 13.8132 39.369L13.2703 40.2204C13.1446 40.0566 12.9846 39.9023 12.7903 39.7576C12.596 39.609 12.3731 39.489 12.1217 39.3975C11.8703 39.3061 11.5998 39.2604 11.3102 39.2604C10.9559 39.2604 10.655 39.3347 10.4073 39.4833C10.1635 39.628 9.97684 39.8166 9.84732 40.049C9.71779 40.2814 9.65302 40.529 9.65302 40.7919C9.65302 41.0281 9.70064 41.2281 9.79589 41.3919C9.89494 41.5557 10.0264 41.6948 10.1902 41.8091C10.354 41.9234 10.5388 42.0243 10.7445 42.1119C10.9502 42.1996 11.1617 42.2834 11.3788 42.3634C11.7674 42.5158 12.135 42.6739 12.4817 42.8377C12.8284 42.9977 13.1332 43.1863 13.396 43.4034C13.6589 43.6168 13.8646 43.8739 14.0132 44.1749C14.1656 44.4758 14.2418 44.8397 14.2418 45.2663C14.2418 45.8416 14.1046 46.3331 13.8303 46.7407C13.5598 47.1445 13.1884 47.4531 12.716 47.6664C12.2436 47.8798 11.7045 47.9865 11.0988 47.9865ZM33.3467 47.9865C32.6876 47.9865 32.0705 47.8607 31.4952 47.6093C30.9199 47.3579 30.4152 47.0093 29.9809 46.5635C29.5466 46.114 29.2056 45.594 28.958 45.0035C28.7141 44.4092 28.5922 43.773 28.5922 43.0948C28.5922 42.4129 28.7141 41.7767 28.958 41.1862C29.2056 40.5957 29.5466 40.0776 29.9809 39.6318C30.4152 39.1823 30.9199 38.8318 31.4952 38.5804C32.0705 38.3289 32.6876 38.2032 33.3467 38.2032C34.0058 38.2032 34.6229 38.3289 35.1982 38.5804C35.7735 38.8318 36.2782 39.1823 36.7126 39.6318C37.1469 40.0776 37.4859 40.5957 37.7297 41.1862C37.9774 41.7767 38.1012 42.4129 38.1012 43.0948C38.1012 43.773 37.9774 44.4092 37.7297 45.0035C37.4859 45.594 37.1469 46.114 36.7126 46.5635C36.2782 47.0093 35.7735 47.3579 35.1982 47.6093C34.6229 47.8607 34.0058 47.9865 33.3467 47.9865ZM33.3467 46.8664C33.842 46.8664 34.301 46.7712 34.7239 46.5807C35.1506 46.3902 35.522 46.1254 35.8382 45.7864C36.1582 45.4435 36.4059 45.0435 36.5811 44.5863C36.7602 44.1254 36.8497 43.6282 36.8497 43.0948C36.8497 42.5615 36.7602 42.0662 36.5811 41.6091C36.4059 41.1481 36.1582 40.7481 35.8382 40.409C35.522 40.0661 35.1506 39.7995 34.7239 39.609C34.301 39.4185 33.842 39.3233 33.3467 39.3233C32.8514 39.3233 32.3905 39.4185 31.9638 39.609C31.5409 39.7995 31.1695 40.0661 30.8495 40.409C30.5333 40.7481 30.2856 41.1481 30.1066 41.6091C29.9313 42.0662 29.8437 42.5615 29.8437 43.0948C29.8437 43.6282 29.9313 44.1254 30.1066 44.5863C30.2856 45.0435 30.5333 45.4435 30.8495 45.7864C31.1695 46.1254 31.5409 46.3902 31.9638 46.5807C32.3905 46.7712 32.8514 46.8664 33.3467 46.8664ZM56.3241 47.9865C55.2117 47.9865 54.3736 47.6893 53.8097 47.095C53.2459 46.5007 52.964 45.6149 52.964 44.4377V38.3747H54.124V44.1463C54.124 45.0644 54.3031 45.7445 54.6612 46.1864C55.0231 46.6245 55.5774 46.8436 56.3241 46.8436C57.0708 46.8436 57.6232 46.6245 57.9813 46.1864C58.3432 45.7445 58.5242 45.0644 58.5242 44.1463V38.3747H59.69V44.4377C59.69 45.6149 59.408 46.5007 58.8442 47.095C58.2804 47.6893 57.4403 47.9865 56.3241 47.9865ZM75.1572 47.8036V38.3747H77.8316C78.4564 38.3747 78.9974 38.4832 79.4546 38.7004C79.9117 38.9175 80.2641 39.2299 80.5117 39.6376C80.7632 40.0414 80.8889 40.5271 80.8889 41.0948C80.8889 41.59 80.7918 42.03 80.5975 42.4148C80.4032 42.7996 80.1251 43.1139 79.7631 43.3577C79.405 43.6015 78.9764 43.7615 78.4774 43.8377L81.5975 47.8036H80.1232L77.203 43.9577H76.3173V47.8036H75.1572ZM76.3173 42.9691H77.5173C77.9669 42.9691 78.3536 42.8948 78.6774 42.7463C79.0012 42.5977 79.2507 42.3862 79.426 42.1119C79.6012 41.8338 79.6889 41.5043 79.6889 41.1233C79.6889 40.5557 79.4965 40.1119 79.1117 39.7919C78.7307 39.4718 78.1993 39.3118 77.5173 39.3118H76.3173V42.9691ZM100.179 47.9865C99.4704 47.9865 98.8094 47.8626 98.1961 47.615C97.5865 47.3636 97.0513 47.0169 96.5903 46.575C96.1332 46.1292 95.7769 45.6092 95.5217 45.0149C95.2664 44.4206 95.1388 43.7806 95.1388 43.0948C95.1388 42.4091 95.2664 41.7691 95.5217 41.1748C95.7808 40.5805 96.1389 40.0623 96.596 39.6204C97.0532 39.1747 97.5865 38.828 98.1961 38.5804C98.8056 38.3289 99.4647 38.2032 100.173 38.2032C100.76 38.2032 101.312 38.2889 101.831 38.4604C102.352 38.628 102.808 38.8585 103.196 39.1518L102.671 40.129C102.358 39.8776 101.992 39.6852 101.573 39.5518C101.154 39.4147 100.712 39.3461 100.248 39.3461C99.6876 39.3461 99.1733 39.4414 98.7047 39.6318C98.2361 39.8223 97.8285 40.089 97.4818 40.4319C97.1389 40.7709 96.8722 41.169 96.6817 41.6262C96.4951 42.0796 96.4017 42.5691 96.4017 43.0948C96.4017 43.6206 96.4951 44.112 96.6817 44.5692C96.8722 45.0225 97.1389 45.4206 97.4818 45.7635C97.8285 46.1026 98.2361 46.3673 98.7047 46.5578C99.1733 46.7483 99.6876 46.8436 100.248 46.8436C100.712 46.8436 101.154 46.7769 101.573 46.6435C101.992 46.5064 102.358 46.3121 102.671 46.0607L103.196 47.0378C102.815 47.3236 102.366 47.5541 101.848 47.7293C101.33 47.9007 100.773 47.9865 100.179 47.9865ZM117.774 47.8036V38.3747H122.671V39.3975H118.934V42.5691H122.534V43.5863H118.934V46.7807H122.671V47.8036H117.774Z" fill="black"/>
<path d="M99.2744 34L110.035 19.0544L110 24.0128L99.6612 9.38366H107.503L114.115 18.9137L110.774 18.9489L117.279 9.38366H124.805L114.466 23.7315V18.8082L125.368 34H117.35L110.633 23.9776H113.833L107.222 34H99.2744Z" fill="#A60000"/>
<path d="M7.7014 33.8467V14.7514H0.140665V9.23034H22.1899V14.7514H14.6643V33.8467H7.7014ZM31.1842 18.7604H42.6132V23.965H31.1842V18.7604ZM31.6765 28.4663H44.5473V33.8467H24.7839V9.23034H44.0902V14.6108H31.6765V28.4663ZM60.6842 34.339C58.7383 34.339 56.9331 34.0342 55.2686 33.4247C53.6275 32.7917 52.1974 31.9008 50.9783 30.7521C49.7827 29.6033 48.8449 28.2553 48.165 26.7079C47.4852 25.1372 47.1452 23.414 47.1452 21.5385C47.1452 19.663 47.4852 17.9516 48.165 16.4042C48.8449 14.8335 49.7827 13.4737 50.9783 12.325C52.1974 11.1762 53.6275 10.2971 55.2686 9.68751C56.9331 9.05451 58.7383 8.73802 60.6842 8.73802C62.9583 8.73802 64.9862 9.13657 66.768 9.93367C68.5732 10.7308 70.0736 11.8795 71.2692 13.38L66.8383 17.3889C66.0412 16.4511 65.162 15.7361 64.2008 15.2438C63.2631 14.7514 62.2081 14.5053 61.0359 14.5053C60.0278 14.5053 59.1017 14.6694 58.2577 14.9976C57.4138 15.3258 56.687 15.8064 56.0774 16.4394C55.4913 17.049 55.0225 17.7875 54.6708 18.6549C54.3426 19.5223 54.1785 20.4835 54.1785 21.5385C54.1785 22.5935 54.3426 23.5547 54.6708 24.4221C55.0225 25.2896 55.4913 26.0398 56.0774 26.6728C56.687 27.2823 57.4138 27.7512 58.2577 28.0794C59.1017 28.4076 60.0278 28.5718 61.0359 28.5718C62.2081 28.5718 63.2631 28.3256 64.2008 27.8333C65.162 27.3409 66.0412 26.6259 66.8383 25.6881L71.2692 29.6971C70.0736 31.174 68.5732 32.3228 66.768 33.1434C64.9862 33.9405 62.9583 34.339 60.6842 34.339ZM90.8315 9.23034H97.7944V33.8467H90.8315V9.23034ZM81.3366 33.8467H74.3737V9.23034H81.3366V33.8467ZM91.3238 24.2463H80.8443V18.4791H91.3238V24.2463Z" fill="black"/>
</svg>
